<svg width="341" height="164" viewBox="0 0 341 164" fill="none" xmlns="http://www.w3.org/2000/svg">
<g clip-path="url(#clip0_1108_49400)">
<path d="M-18 139H156" stroke="#18181B" stroke-width="2"/>
<path d="M225 113H376" stroke="#18181B" stroke-width="2"/>
<path d="M-18 81L113 81" stroke="#18181B" stroke-width="2"/>
<path d="M228 81L358 81" stroke="#18181B" stroke-width="2"/>
<path d="M299 8V154" stroke="#18181B" stroke-width="2"/>
<path d="M267 36V113" stroke="#18181B" stroke-width="2"/>
<path d="M203 35.0002L358 35" stroke="#18181B" stroke-width="2"/>
<path d="M-16 45H122" stroke="#18181B" stroke-width="2"/>
<path d="M120 13V44" stroke="#18181B" stroke-width="2"/>
<line x1="23" x2="23" y2="155" stroke="#18181B" stroke-width="2"/>
<path d="M67 45.999V150.999" stroke="#18181B" stroke-width="2"/>
<circle opacity="0.14" cx="67" cy="81" r="3.5" fill="#407CFF"/>
<circle opacity="0.14" cx="22.9492" cy="139" r="3.5" fill="#407CFF"/>
<circle opacity="0.14" cx="299" cy="35" r="3.5" fill="#407CFF"/>
<circle opacity="0.14" cx="267" cy="81" r="3.5" fill="#407CFF"/>
<g filter="url(#filter0_d_1108_49400)">
<path d="M164.474 37.3433L132.523 57.1219C129.736 58.8041 128.022 61.8155 128 65.0649L128 102.166M164.474 37.3433C167.325 35.6222 170.869 35.5503 173.77 37.1545M164.474 37.3433C167.311 35.6307 170.87 35.5509 173.77 37.1545M128 102.166C127.978 105.56 130.298 108.689 133.26 110.327M128 102.166C127.978 105.543 130.299 108.69 133.26 110.327M133.26 110.327L166.749 128.845M166.749 128.845C169.694 130.474 173.297 130.374 176.164 128.584M166.749 128.845C169.692 130.473 173.311 130.365 176.164 128.584M176.164 128.584L208.596 108.339M208.596 108.339C211.391 106.594 213.065 103.506 212.998 100.218M208.596 108.339C211.393 106.593 213.065 103.509 212.998 100.218M212.998 100.218L212.793 63.7209M212.793 63.7209C212.725 60.4179 210.911 57.4076 208.028 55.8131M212.793 63.7209C212.725 60.434 210.91 57.4069 208.028 55.8131M208.028 55.8131L173.77 37.1545" stroke="#407CFF" stroke-opacity="0.5" shape-rendering="crispEdges"/>
</g>
<g filter="url(#filter1_d_1108_49400)">
<path d="M162.769 27.6148L124.427 51.3912C121.083 53.4135 119.026 57.0335 119 60.9397L119 105.54M162.769 27.6148C166.19 25.5459 170.443 25.4594 173.924 27.3879M162.769 27.6148C166.173 25.5561 170.444 25.4601 173.924 27.3879M119 105.54C118.973 109.62 121.757 113.382 125.311 115.351M119 105.54C118.974 109.599 121.759 113.383 125.311 115.351M125.311 115.351L165.499 137.612M165.499 137.612C169.032 139.57 173.356 139.449 176.797 137.298M165.499 137.612C169.031 139.569 173.373 139.438 176.797 137.298M176.797 137.298L215.715 112.961M215.715 112.961C219.07 110.863 221.078 107.151 220.998 103.198M215.715 112.961C219.072 110.862 221.078 107.154 220.998 103.198M220.998 103.198L220.751 59.3241M220.751 59.3241C220.67 55.3534 218.494 51.7346 215.033 49.8179M220.751 59.3241C220.671 55.3728 218.492 51.7339 215.033 49.8179M215.033 49.8179L173.924 27.3879" stroke="#407CFF" stroke-opacity="0.15" shape-rendering="crispEdges"/>
</g>
<g filter="url(#filter2_d_1108_49400)">
<path d="M161.205 18.8578L117.225 46.2111C113.39 48.5376 111.03 52.7022 111 57.1961L111 108.506M161.205 18.8578C165.129 16.4776 170.008 16.378 174.001 18.5967M161.205 18.8578C165.11 16.4893 170.01 16.3789 174.001 18.5967M111 108.506C110.97 113.2 114.163 117.528 118.24 119.793M111 108.506C110.97 113.176 114.164 117.529 118.24 119.793M118.24 119.793L164.337 145.403M164.337 145.403C168.39 147.655 173.35 147.517 177.296 145.041M164.337 145.403C168.388 147.654 173.37 147.504 177.296 145.041M177.296 145.041L221.938 117.043M221.938 117.043C225.786 114.63 228.09 110.36 227.997 105.812M221.938 117.043C225.788 114.629 228.09 110.363 227.997 105.812M227.997 105.812L227.714 55.3375M227.714 55.3375C227.622 50.7694 225.125 46.6062 221.156 44.4011M227.714 55.3375C227.622 50.7917 225.123 46.6053 221.156 44.4011M221.156 44.4011L174.001 18.5967" stroke="#407CFF" stroke-opacity="0.1" shape-rendering="crispEdges"/>
</g>
<g filter="url(#filter3_d_1108_49400)">
<path d="M139.565 61.8525L164.75 46.0718C166.997 44.6986 169.791 44.6412 172.078 45.9212L199.081 60.8083C201.354 62.0805 202.783 64.4823 202.836 67.1178L202.998 96.2376C203.051 98.8633 201.733 101.324 199.529 102.717L173.965 118.87C171.705 120.298 168.864 120.378 166.543 119.079L140.146 104.304C137.811 102.997 135.983 100.5 136 97.7919L136 68.1901C136.017 65.5974 137.369 63.1948 139.565 61.8525Z" fill="#18181B"/>
<path d="M164.75 46.0718L139.565 61.8525C137.369 63.1948 136.017 65.5974 136 68.1901L136 97.7919M164.75 46.0718C166.997 44.6986 169.791 44.6412 172.078 45.9212M164.75 46.0718C166.986 44.7054 169.792 44.6417 172.078 45.9212M136 97.7919C135.983 100.5 137.811 102.997 140.146 104.304M136 97.7919C135.983 100.486 137.812 102.997 140.146 104.304M140.146 104.304L166.543 119.079M166.543 119.079C168.864 120.378 171.705 120.298 173.965 118.87M166.543 119.079C168.863 120.377 171.716 120.291 173.965 118.87M173.965 118.87L199.529 102.717M199.529 102.717C201.732 101.325 203.051 98.8613 202.998 96.2376M199.529 102.717C201.733 101.324 203.051 98.8633 202.998 96.2376M202.998 96.2376L202.836 67.1178M202.836 67.1178C202.783 64.4823 201.354 62.0805 199.081 60.8083M202.836 67.1178C202.784 64.4952 201.353 62.08 199.081 60.8083M199.081 60.8083L172.078 45.9212" stroke="url(#paint0_linear_1108_49400)" stroke-width="2"/>
</g>
<path d="M181.649 77.1838C181.544 76.9412 181.372 76.733 181.154 76.5827C180.936 76.4325 180.681 76.3463 180.417 76.3338H173.928L175.727 69.6188C175.785 69.4087 175.793 69.1882 175.751 68.9744C175.709 68.7607 175.619 68.5594 175.487 68.3863C175.355 68.2149 175.185 68.076 174.991 67.9802C174.797 67.8844 174.584 67.8344 174.367 67.8338H164.451C164.131 67.8229 163.817 67.9205 163.56 68.1109C163.302 68.3013 163.117 68.5731 163.034 68.8822L159.237 83.0488C159.18 83.259 159.172 83.4795 159.214 83.6932C159.256 83.907 159.346 84.1082 159.478 84.2813C159.612 84.4547 159.783 84.5948 159.98 84.6906C160.177 84.7865 160.393 84.8355 160.612 84.8338H166.094L163.53 94.3822C163.446 94.6901 163.468 95.0173 163.594 95.3109C163.719 95.6044 163.939 95.8471 164.22 95.9996C164.5 96.1521 164.824 96.2054 165.138 96.151C165.453 96.0966 165.74 95.9375 165.952 95.6997L181.394 78.6997C181.578 78.4983 181.7 78.2482 181.745 77.9793C181.79 77.7105 181.757 77.4342 181.649 77.1838V77.1838ZM167.78 89.4805L169.296 83.8138C169.353 83.6037 169.361 83.3832 169.319 83.1694C169.278 82.9557 169.187 82.7544 169.055 82.5813C168.923 82.4099 168.753 82.271 168.559 82.1752C168.365 82.0794 168.152 82.0294 167.936 82.0288H162.496L165.527 70.6672H172.512L170.712 77.3822C170.655 77.5962 170.648 77.8207 170.693 78.0378C170.738 78.2549 170.833 78.4584 170.97 78.632C171.108 78.8057 171.285 78.9445 171.486 79.0375C171.687 79.1304 171.908 79.1748 172.129 79.1672H177.187L167.78 89.4805Z" fill="url(#paint1_linear_1108_49400)"/>
</g>
<defs>
<filter id="filter0_d_1108_49400" x="110.039" y="18.0395" width="120.921" height="129.921" filterUnits="userSpaceOnUse" color-interpolation-filters="sRGB">
<feFlood flood-opacity="0" result="BackgroundImageFix"/>
<feColorMatrix in="SourceAlpha" type="matrix" values="0 0 0 0 0 0 0 0 0 0 0 0 0 0 0 0 0 0 127 0" result="hardAlpha"/>
<feOffset/>
<feGaussianBlur stdDeviation="8.73025"/>
<feComposite in2="hardAlpha" operator="out"/>
<feColorMatrix type="matrix" values="0 0 0 0 1 0 0 0 0 1 0 0 0 0 1 0 0 0 0.39 0"/>
<feBlend mode="normal" in2="BackgroundImageFix" result="effect1_dropShadow_1108_49400"/>
<feBlend mode="normal" in="SourceGraphic" in2="effect1_dropShadow_1108_49400" result="shape"/>
</filter>
<filter id="filter1_d_1108_49400" x="101.616" y="8.61632" width="136.767" height="147.767" filterUnits="userSpaceOnUse" color-interpolation-filters="sRGB">
<feFlood flood-opacity="0" result="BackgroundImageFix"/>
<feColorMatrix in="SourceAlpha" type="matrix" values="0 0 0 0 0 0 0 0 0 0 0 0 0 0 0 0 0 0 127 0" result="hardAlpha"/>
<feOffset/>
<feGaussianBlur stdDeviation="8.44184"/>
<feComposite in2="hardAlpha" operator="out"/>
<feColorMatrix type="matrix" values="0 0 0 0 1 0 0 0 0 1 0 0 0 0 1 0 0 0 0.14 0"/>
<feBlend mode="normal" in2="BackgroundImageFix" result="effect1_dropShadow_1108_49400"/>
<feBlend mode="normal" in="SourceGraphic" in2="effect1_dropShadow_1108_49400" result="shape"/>
</filter>
<filter id="filter2_d_1108_49400" x="93.6163" y="-0.38368" width="151.767" height="164.767" filterUnits="userSpaceOnUse" color-interpolation-filters="sRGB">
<feFlood flood-opacity="0" result="BackgroundImageFix"/>
<feColorMatrix in="SourceAlpha" type="matrix" values="0 0 0 0 0 0 0 0 0 0 0 0 0 0 0 0 0 0 127 0" result="hardAlpha"/>
<feOffset/>
<feGaussianBlur stdDeviation="8.44184"/>
<feComposite in2="hardAlpha" operator="out"/>
<feColorMatrix type="matrix" values="0 0 0 0 1 0 0 0 0 1 0 0 0 0 1 0 0 0 0.08 0"/>
<feBlend mode="normal" in2="BackgroundImageFix" result="effect1_dropShadow_1108_49400"/>
<feBlend mode="normal" in="SourceGraphic" in2="effect1_dropShadow_1108_49400" result="shape"/>
</filter>
<filter id="filter3_d_1108_49400" x="118.116" y="27.1163" width="102.767" height="110.767" filterUnits="userSpaceOnUse" color-interpolation-filters="sRGB">
<feFlood flood-opacity="0" result="BackgroundImageFix"/>
<feColorMatrix in="SourceAlpha" type="matrix" values="0 0 0 0 0 0 0 0 0 0 0 0 0 0 0 0 0 0 127 0" result="hardAlpha"/>
<feOffset/>
<feGaussianBlur stdDeviation="8.44184"/>
<feComposite in2="hardAlpha" operator="out"/>
<feColorMatrix type="matrix" values="0 0 0 0 1 0 0 0 0 1 0 0 0 0 1 0 0 0 0.07 0"/>
<feBlend mode="normal" in2="BackgroundImageFix" result="effect1_dropShadow_1108_49400"/>
<feBlend mode="normal" in="SourceGraphic" in2="effect1_dropShadow_1108_49400" result="shape"/>
</filter>
<linearGradient id="paint0_linear_1108_49400" x1="136.657" y1="68.0021" x2="202.999" y2="100.853" gradientUnits="userSpaceOnUse">
<stop stop-color="#407CFF"/>
<stop offset="1" stop-color="#0035A9"/>
</linearGradient>
<linearGradient id="paint1_linear_1108_49400" x1="159.125" y1="73.8891" x2="183.793" y2="84.4614" gradientUnits="userSpaceOnUse">
<stop stop-color="#407CFF"/>
<stop offset="1" stop-color="#0035A9"/>
</linearGradient>
<clipPath id="clip0_1108_49400">
<rect width="341" height="164" fill="white"/>
</clipPath>
</defs>
</svg>
