<svg width="341" height="164" viewBox="0 0 341 164" fill="none" xmlns="http://www.w3.org/2000/svg">
<path d="M-18 139H156" stroke="#F4F4F5" stroke-width="2"/>
<path d="M225 113H376" stroke="#F4F4F5" stroke-width="2"/>
<path d="M-18 81L113 81" stroke="#F4F4F5" stroke-width="2"/>
<path d="M228 81L358 81" stroke="#F4F4F5" stroke-width="2"/>
<path d="M299 8V154" stroke="#F4F4F5" stroke-width="2"/>
<path d="M267 36V113" stroke="#F4F4F5" stroke-width="2"/>
<path d="M203 35.0002L358 35" stroke="#F4F4F5" stroke-width="2"/>
<path d="M-16 45H122" stroke="#F4F4F5" stroke-width="2"/>
<path d="M120 13V44" stroke="#F4F4F5" stroke-width="2"/>
<line x1="23" x2="23" y2="155" stroke="#F4F4F5" stroke-width="2"/>
<path d="M67 45.999V150.999" stroke="#F4F4F5" stroke-width="2"/>
<circle opacity="0.7" cx="67" cy="81" r="3.5" fill="#407CFF"/>
<circle opacity="0.7" cx="22.9492" cy="139" r="3.5" fill="#407CFF"/>
<circle opacity="0.7" cx="299" cy="35" r="3.5" fill="#407CFF"/>
<circle opacity="0.7" cx="267" cy="81" r="3.5" fill="#407CFF"/>
<g filter="url(#filter0_d_1185_58507)">
<path d="M139.565 61.8525L164.75 46.0718C166.997 44.6986 169.791 44.6412 172.078 45.9212L199.081 60.8083C201.354 62.0805 202.783 64.4823 202.836 67.1178L202.998 96.2376C203.051 98.8633 201.733 101.324 199.529 102.717L173.965 118.87C171.705 120.298 168.864 120.378 166.543 119.079L140.146 104.304C137.811 102.997 135.983 100.5 136 97.7919L136 68.1901C136.017 65.5974 137.369 63.1948 139.565 61.8525Z" fill="white"/>
<path d="M140.086 62.7058L140.086 62.7059L140.096 62.6999L165.276 46.9223C167.216 45.7391 169.621 45.6922 171.589 46.7938L171.595 46.7969L198.592 61.6809C198.593 61.6814 198.594 61.6819 198.595 61.6824C200.55 62.778 201.788 64.8486 201.837 67.1307C201.837 67.1331 201.837 67.1355 201.837 67.1379L201.998 96.2432L201.999 96.2505L201.999 96.2578C202.045 98.5363 200.901 100.667 198.995 101.872L173.431 118.025C171.478 119.258 169.031 119.325 167.032 118.206L140.634 103.431C138.534 102.256 136.985 100.056 137 97.7984V97.7919L137 68.1966C137 68.1955 137 68.1945 137 68.1935C137.016 65.945 138.189 63.8655 140.086 62.7058Z" stroke="url(#paint0_linear_1185_58507)" stroke-width="2"/>
</g>
<g filter="url(#filter1_d_1185_58507)">
<path d="M132.781 57.5499L132.781 57.5499L132.786 57.547L164.732 37.7714C164.733 37.7709 164.734 37.7705 164.735 37.77C167.433 36.1421 170.785 36.0753 173.528 37.5921L173.531 37.5936L207.786 56.2506C207.786 56.2509 207.787 56.2512 207.787 56.2515C210.512 57.759 212.227 60.604 212.293 63.7273C212.293 63.7286 212.293 63.7299 212.293 63.7311L212.498 100.221L212.498 100.228C212.562 103.342 210.979 106.262 208.331 107.915L175.899 128.16C173.185 129.854 169.776 129.948 166.991 128.408L133.501 109.89C130.656 108.316 128.479 105.335 128.5 102.169V102.166L128.5 65.0682C128.5 65.0677 128.5 65.0671 128.5 65.0666C128.521 61.9921 130.144 59.1422 132.781 57.5499Z" stroke="#407CFF" shape-rendering="crispEdges"/>
</g>
<g filter="url(#filter2_d_1185_58507)">
<path d="M124.686 51.819L124.686 51.819L124.691 51.8161L163.028 28.0427C163.028 28.0422 163.029 28.0417 163.03 28.0413C166.298 26.0658 170.359 25.9844 173.682 27.8253L173.685 27.8268L214.791 50.2552C214.792 50.2555 214.792 50.2558 214.793 50.2561C218.094 52.0858 220.172 55.5391 220.251 59.3304C220.251 59.3317 220.251 59.333 220.251 59.3343L220.498 103.201L220.498 103.208C220.575 106.988 218.658 110.531 215.45 112.537L176.532 136.874C173.244 138.929 169.115 139.044 165.741 137.175L125.554 114.914C122.116 113.009 119.475 109.395 119.5 105.543V105.54L119.5 60.943C119.5 60.9425 119.5 60.9419 119.5 60.9414C119.525 57.2097 121.491 53.7511 124.686 51.819Z" stroke="#407CFF" stroke-opacity="0.3" shape-rendering="crispEdges"/>
</g>
<path d="M117.485 46.6386L117.485 46.6386L117.49 46.6357L161.465 19.2853C161.465 19.2848 161.466 19.2843 161.467 19.2838C165.238 16.9976 169.924 16.9033 173.759 19.0338L173.761 19.0353L220.913 44.8382C220.913 44.8384 220.914 44.8386 220.914 44.8389C224.725 46.9565 227.124 50.9542 227.214 55.3437C227.215 55.345 227.215 55.3463 227.215 55.3476L227.497 105.815L227.497 105.822C227.586 110.198 225.374 114.299 221.672 116.62L177.031 144.618C173.238 146.997 168.473 147.129 164.58 144.966L118.482 119.356C114.522 117.156 111.471 112.976 111.5 108.509V108.506L111.5 57.1994C111.5 57.1989 111.5 57.1983 111.5 57.1978C111.529 52.8777 113.798 48.8746 117.485 46.6386Z" stroke="#407CFF" stroke-opacity="0.2"/>
<path d="M181.649 77.1838C181.544 76.9412 181.372 76.733 181.154 76.5827C180.936 76.4325 180.681 76.3463 180.417 76.3338H173.928L175.727 69.6188C175.785 69.4087 175.793 69.1882 175.751 68.9744C175.709 68.7607 175.619 68.5594 175.487 68.3863C175.355 68.2149 175.185 68.076 174.991 67.9802C174.797 67.8844 174.584 67.8344 174.367 67.8338H164.451C164.131 67.8229 163.817 67.9205 163.56 68.1109C163.302 68.3013 163.117 68.5731 163.034 68.8822L159.237 83.0488C159.18 83.259 159.172 83.4795 159.214 83.6932C159.256 83.907 159.346 84.1082 159.478 84.2813C159.612 84.4547 159.783 84.5948 159.98 84.6906C160.177 84.7865 160.393 84.8355 160.612 84.8338H166.094L163.53 94.3822C163.446 94.6901 163.468 95.0173 163.594 95.3109C163.719 95.6044 163.939 95.8471 164.22 95.9996C164.5 96.1521 164.824 96.2054 165.138 96.151C165.453 96.0966 165.74 95.9375 165.952 95.6997L181.394 78.6997C181.578 78.4983 181.7 78.2482 181.745 77.9793C181.79 77.7105 181.757 77.4342 181.649 77.1838ZM167.78 89.4805L169.296 83.8138C169.353 83.6037 169.361 83.3832 169.319 83.1694C169.278 82.9557 169.187 82.7544 169.055 82.5813C168.923 82.4099 168.753 82.271 168.559 82.1752C168.365 82.0794 168.152 82.0294 167.936 82.0288H162.496L165.527 70.6672H172.512L170.712 77.3822C170.655 77.5962 170.648 77.8207 170.693 78.0378C170.738 78.2549 170.833 78.4584 170.97 78.632C171.108 78.8057 171.285 78.9445 171.486 79.0375C171.687 79.1304 171.908 79.1748 172.129 79.1672H177.187L167.78 89.4805Z" fill="url(#paint1_linear_1185_58507)"/>
<defs>
<filter id="filter0_d_1185_58507" x="119.116" y="28.1163" width="100.767" height="108.767" filterUnits="userSpaceOnUse" color-interpolation-filters="sRGB">
<feFlood flood-opacity="0" result="BackgroundImageFix"/>
<feColorMatrix in="SourceAlpha" type="matrix" values="0 0 0 0 0 0 0 0 0 0 0 0 0 0 0 0 0 0 127 0" result="hardAlpha"/>
<feOffset/>
<feGaussianBlur stdDeviation="8.44184"/>
<feComposite in2="hardAlpha" operator="out"/>
<feColorMatrix type="matrix" values="0 0 0 0 0.25098 0 0 0 0 0.486275 0 0 0 0 1 0 0 0 0.07 0"/>
<feBlend mode="normal" in2="BackgroundImageFix" result="effect1_dropShadow_1185_58507"/>
<feBlend mode="normal" in="SourceGraphic" in2="effect1_dropShadow_1185_58507" result="shape"/>
</filter>
<filter id="filter1_d_1185_58507" x="110.539" y="18.5395" width="119.921" height="128.921" filterUnits="userSpaceOnUse" color-interpolation-filters="sRGB">
<feFlood flood-opacity="0" result="BackgroundImageFix"/>
<feColorMatrix in="SourceAlpha" type="matrix" values="0 0 0 0 0 0 0 0 0 0 0 0 0 0 0 0 0 0 127 0" result="hardAlpha"/>
<feOffset/>
<feGaussianBlur stdDeviation="8.73025"/>
<feComposite in2="hardAlpha" operator="out"/>
<feColorMatrix type="matrix" values="0 0 0 0 0.25098 0 0 0 0 0.486275 0 0 0 0 1 0 0 0 0.43 0"/>
<feBlend mode="normal" in2="BackgroundImageFix" result="effect1_dropShadow_1185_58507"/>
<feBlend mode="normal" in="SourceGraphic" in2="effect1_dropShadow_1185_58507" result="shape"/>
</filter>
<filter id="filter2_d_1185_58507" x="102.116" y="9.11632" width="135.767" height="146.767" filterUnits="userSpaceOnUse" color-interpolation-filters="sRGB">
<feFlood flood-opacity="0" result="BackgroundImageFix"/>
<feColorMatrix in="SourceAlpha" type="matrix" values="0 0 0 0 0 0 0 0 0 0 0 0 0 0 0 0 0 0 127 0" result="hardAlpha"/>
<feOffset/>
<feGaussianBlur stdDeviation="8.44184"/>
<feComposite in2="hardAlpha" operator="out"/>
<feColorMatrix type="matrix" values="0 0 0 0 0.25098 0 0 0 0 0.486275 0 0 0 0 1 0 0 0 0.18 0"/>
<feBlend mode="normal" in2="BackgroundImageFix" result="effect1_dropShadow_1185_58507"/>
<feBlend mode="normal" in="SourceGraphic" in2="effect1_dropShadow_1185_58507" result="shape"/>
</filter>
<linearGradient id="paint0_linear_1185_58507" x1="136.657" y1="68.0021" x2="202.999" y2="100.853" gradientUnits="userSpaceOnUse">
<stop stop-color="#407CFF"/>
<stop offset="1" stop-color="#0035A9"/>
</linearGradient>
<linearGradient id="paint1_linear_1185_58507" x1="159.125" y1="73.8891" x2="183.793" y2="84.4614" gradientUnits="userSpaceOnUse">
<stop stop-color="#407CFF"/>
<stop offset="1" stop-color="#0035A9"/>
</linearGradient>
</defs>
</svg>
