<svg width="233" height="52" viewBox="0 0 233 52" fill="none" xmlns="http://www.w3.org/2000/svg">
<path d="M41.0814 13.384L36.7575 5.94935C33.5405 0.418059 25.5234 0.418051 22.3064 5.94934L4.05604 37.3294C0.805079 42.9193 4.89854 49.8188 11.2816 49.8188L63.0854 49.8187C68.8191 49.8187 72.6723 43.6251 69.6513 38.4899L54.5476 12.8154C51.6151 7.83057 44.3484 7.83057 41.4159 12.8154L41.0814 13.384Z" fill="white"/>
<path fill-rule="evenodd" clip-rule="evenodd" d="M200.407 15.0747V13.6998C200.407 11.4907 198.617 9.69983 196.407 9.69983H189.422C187.213 9.69983 185.422 11.4907 185.422 13.6998V35.5495H180.503C178.985 35.5495 177.878 35.5404 176.359 35.5404H174.008V31.9992H176.359C178.569 31.9992 180.359 30.2084 180.359 27.9992V22.4166C180.359 20.2075 178.569 18.4166 176.359 18.4166H174.008V15.6558C174.008 13.4467 172.218 11.6558 170.008 11.6558H163.835C161.626 11.6558 159.835 13.4467 159.835 15.6558C159.835 17.5666 160.379 18.4171 158.594 18.4171H151.15C149.847 18.4171 148.671 18.697 147.922 19.7628L146.901 21.2155L145.858 19.7466C145.108 18.6902 143.991 18.4171 142.695 18.4171C137.39 18.4171 132.085 18.4171 126.78 18.4171C124.571 18.4171 122.78 20.208 122.78 22.4171V35.1517C122.78 35.7979 122.577 36.0911 122.495 36.1796C122.453 36.2247 122.407 36.2578 122.345 36.2837C122.284 36.3098 122.167 36.3452 121.973 36.3452C121.907 36.3452 121.86 36.3396 121.832 36.3346C121.791 36.2559 121.71 36.0493 121.71 35.6409V22.4171C121.71 20.208 119.92 18.4171 117.71 18.4171H111.131C110.951 18.4171 110.773 18.4291 110.598 18.4523V13.6998C110.598 11.4907 108.808 9.69983 106.598 9.69983H99.6116C97.4024 9.69983 95.6116 11.4907 95.6116 13.6998V20.4945L90.0353 11.5788C89.3042 10.4098 88.0227 9.69983 86.644 9.69983H79.3815C77.1723 9.69983 75.3815 11.4907 75.3815 13.6998V45.8386C75.3815 48.0478 77.1723 49.8386 79.3815 49.8386H86.3683C88.5774 49.8386 90.3683 48.0478 90.3683 45.8386V39.0194L95.9947 47.9678C96.7267 49.1321 98.0056 49.8386 99.3809 49.8386H106.598C108.69 49.8386 110.407 48.2331 110.583 46.1872C110.615 46.2213 110.647 46.2551 110.678 46.2888L110.703 46.3153L110.739 46.3521C113.133 48.8496 115.919 49.8386 119.628 49.8386C121.426 49.8386 122.672 49.8386 123.391 49.8386H133.359C136.034 49.8386 138.316 49.8386 141.454 49.8386C142.744 49.8386 144.325 48.862 145.076 47.8133L146.92 45.2389L148.763 47.813C149.514 48.8619 150.725 49.4841 152.016 49.4841H159.133C160.627 49.4841 161.997 48.6513 162.685 47.3247C162.827 47.0506 162.935 46.7648 163.009 46.4732L163.035 46.4978C165.464 48.8009 168.732 49.8295 172.184 49.8295H176.359C177.878 49.8295 178.985 49.8386 180.503 49.8386H187.97C191.501 49.8386 194.845 48.7433 197.24 46.0583C198.107 45.0868 198.777 43.9853 199.273 42.7836C200.03 44.0283 200.97 45.1574 202.087 46.1434C205.139 48.8383 209.217 50.1991 213.746 50.1991C218.061 50.1991 222.102 49.0853 225.147 46.694C228.265 44.2452 230.085 40.6528 230.085 36.4014C230.085 32.721 228.907 29.8322 226.89 27.6786C227.4 27.478 227.869 27.1726 228.263 26.7761C229.014 26.021 229.433 24.9977 229.427 23.9329C229.401 19.5243 227.636 15.6693 224.446 13.0095C221.509 10.5611 217.628 9.34723 213.387 9.34723C209.313 9.34723 205.546 10.4843 202.702 12.7366C201.831 13.4263 201.061 14.2102 200.407 15.0747Z" fill="white"/>
<path d="M86.644 13.6998L99.6116 34.4334V13.6998H106.598V45.8386H99.3809L86.3683 25.143V45.8386H79.3815V13.6998H86.644Z" fill="#003543"/>
<path d="M117.71 22.4171V35.6409C117.71 37.0403 118.135 38.2325 118.9 39.0682C119.644 39.8809 120.706 40.3452 121.973 40.3452C123.379 40.3452 124.576 39.8136 125.421 38.907C126.286 37.9784 126.78 36.6652 126.78 35.1517V22.4171H133.359V45.8386H126.78V43.484C126.204 44.149 125.508 44.7005 124.711 45.1288C123.43 45.817 121.886 46.1864 120.16 46.1864C117.439 46.1864 115.198 45.2234 113.626 43.5842C112.041 41.9301 111.131 39.577 111.131 36.7887V22.4171H117.71Z" fill="#003543"/>
<path d="M142.597 22.408L146.918 28.4936L151.195 22.408H158.552L150.526 33.6316L159.133 45.8295H152.016L146.92 38.7145L141.824 45.8295H134.66L143.269 33.6307L135.292 22.408H142.597Z" fill="#003543"/>
<path d="M170.008 15.6558V22.4166H176.359V27.9992H170.008V38.6295C170.008 38.8696 170.106 39.0995 170.28 39.2699C170.456 39.4433 170.696 39.54 170.945 39.5404H176.359V45.8295H172.184C169.509 45.8295 167.311 45.0399 165.787 43.5949C164.292 42.1776 163.429 40.1219 163.429 37.5035V28.0036H158.939V22.4166H162.256C162.755 22.4166 163.161 22.2893 163.435 22.0208C163.708 21.7537 163.835 21.3589 163.835 20.8797V15.6558H170.008Z" fill="#003543"/>
<path d="M196.407 13.6998V36.4409C196.407 39.5467 195.636 41.8478 194.255 43.3956C192.807 45.019 190.678 45.8386 187.97 45.8386H180.503V39.5495H188.125C188.47 39.5495 188.802 39.4158 189.046 39.1764C189.287 38.9403 189.422 38.6205 189.422 38.2865V13.6998H196.407Z" fill="#003543"/>
<path d="M213.387 13.3472C216.88 13.3472 219.798 14.3428 221.885 16.0819C224.115 17.9411 225.408 20.6527 225.427 23.9558H218.709C218.689 22.527 218.117 21.3332 217.095 20.534C216.177 19.8168 214.908 19.4189 213.376 19.4189C211.944 19.4189 210.774 19.7281 209.964 20.3022C209.215 20.8333 208.796 21.5957 208.796 22.5211C208.796 23.6031 209.303 24.3312 210.116 24.8713C211.351 25.6923 213.23 26.111 215.244 26.576C218.15 27.2473 221.32 28.004 223.463 29.9178C225.037 31.3237 226.085 33.3403 226.085 36.4014C226.085 39.4219 224.831 41.8557 222.676 43.5481C220.51 45.249 217.415 46.1991 213.746 46.1991C210.015 46.1991 206.933 45.0864 204.734 43.1448C202.39 41.075 201.035 38.0577 200.985 34.3887L207.725 34.3837C207.792 36.2057 208.424 37.6964 209.558 38.692C210.581 39.5893 212.002 40.0774 213.744 40.0774C215.378 40.0774 216.761 39.7649 217.712 39.0902C218.537 38.5043 219.007 37.6369 219.007 36.4862C219.007 35.6786 218.711 35.0672 218.201 34.5835C217.526 33.9434 216.511 33.5163 215.332 33.146C214.581 32.9099 213.763 32.7005 212.915 32.487C211.969 32.2486 211.487 32.1262 211 31.9946C208.311 31.2379 205.823 30.2783 204.144 28.5416C202.79 27.1398 201.94 25.2376 201.94 22.5163C201.943 19.7995 203.135 17.496 205.185 15.8724C207.191 14.2839 210.031 13.3472 213.387 13.3472Z" fill="#003543"/>
<path d="M33.2997 7.96033C31.6251 5.08103 27.4388 5.08103 25.7642 7.96033L7.5138 39.3403C5.83922 42.2197 7.93244 45.8188 11.2816 45.8188H25.5289C24.0978 44.5681 23.5677 42.4044 24.6507 40.548L38.4727 16.8549L33.2997 7.96033Z" fill="#80EEC0"/>
<path d="M44.8636 14.8436C46.2495 12.4878 49.7141 12.4878 51.1 14.8436L66.2037 40.5181C67.5896 42.8739 65.8573 45.8187 63.0855 45.8187H32.8781C30.1064 45.8187 28.374 42.8739 29.7599 40.5181L44.8636 14.8436Z" fill="#00DC82"/>
</svg>
